REM DIRINDEX 1\2,1\3
REM DIRNAME folder01,folder02,folder03
TITLE ""
FILE "1241-1260.mp3" MP3
  TRACK 01 AUDIO
    TITLE "0:"
    INDEX 01 00:00:00
  TRACK 02 AUDIO
    TITLE "2:cjc039_1481"
    INDEX 01 00:00:29
  TRACK 03 AUDIO
    TITLE "0:"
    INDEX 01 00:01:54
  TRACK 04 AUDIO
    TITLE "3:cjc039_1482"
    INDEX 01 00:02:30
  TRACK 05 AUDIO
    TITLE "0:"
    INDEX 01 00:05:59
  TRACK 06 AUDIO
    TITLE "2:cjc039_1483"
    INDEX 01 00:07:37
  TRACK 07 AUDIO
    TITLE "0:"
    INDEX 01 00:08:56
  TRACK 08 AUDIO
    TITLE "3:cjc039_1484"
    INDEX 01 00:09:32
  TRACK 09 AUDIO
    TITLE "0:"
    INDEX 01 00:13:22
  TRACK 10 AUDIO
    TITLE "2:cjc039_1485"
    INDEX 01 00:15:01
  TRACK 11 AUDIO
    TITLE "0:"
    INDEX 01 00:15:68
  TRACK 12 AUDIO
    TITLE "3:cjc039_1486"
    INDEX 01 00:16:49
  TRACK 13 AUDIO
    TITLE "0:"
    INDEX 01 00:20:08
  TRACK 14 AUDIO
    TITLE "2:cjc039_1487"
    INDEX 01 00:21:62
  TRACK 15 AUDIO
    TITLE "0:"
    INDEX 01 00:23:08
  TRACK 16 AUDIO
    TITLE "3:cjc039_1488"
    INDEX 01 00:23:61
  TRACK 17 AUDIO
    TITLE "0:"
    INDEX 01 00:27:53
  TRACK 18 AUDIO
    TITLE "2:cjc039_1489"
    INDEX 01 00:29:34
  TRACK 19 AUDIO
    TITLE "0:"
    INDEX 01 00:30:38
  TRACK 20 AUDIO
    TITLE "3:cjc039_1490"
    INDEX 01 00:31:16
  TRACK 21 AUDIO
    TITLE "0:"
    INDEX 01 00:35:59
  TRACK 22 AUDIO
    TITLE "2:cjc039_1491"
    INDEX 01 00:37:30
  TRACK 23 AUDIO
    TITLE "0:"
    INDEX 01 00:38:73
  TRACK 24 AUDIO
    TITLE "3:cjc039_1492"
    INDEX 01 00:39:47
  TRACK 25 AUDIO
    TITLE "0:"
    INDEX 01 00:44:38
  TRACK 26 AUDIO
    TITLE "2:cjc039_1493"
    INDEX 01 00:46:13
  TRACK 27 AUDIO
    TITLE "0:"
    INDEX 01 00:47:11
  TRACK 28 AUDIO
    TITLE "3:cjc039_1494"
    INDEX 01 00:47:60
  TRACK 29 AUDIO
    TITLE "0:"
    INDEX 01 00:51:26
  TRACK 30 AUDIO
    TITLE "2:cjc039_1495"
    INDEX 01 00:52:73
  TRACK 31 AUDIO
    TITLE "0:"
    INDEX 01 00:54:19
  TRACK 32 AUDIO
    TITLE "3:cjc039_1496"
    INDEX 01 00:54:74
  TRACK 33 AUDIO
    TITLE "0:"
    INDEX 01 00:58:30
  TRACK 34 AUDIO
    TITLE "2:cjc039_1497"
    INDEX 01 01:00:06
  TRACK 35 AUDIO
    TITLE "0:"
    INDEX 01 01:01:09
  TRACK 36 AUDIO
    TITLE "3:cjc039_1498"
    INDEX 01 01:01:62
  TRACK 37 AUDIO
    TITLE "0:"
    INDEX 01 01:05:26
  TRACK 38 AUDIO
    TITLE "2:cjc039_1499"
    INDEX 01 01:07:04
  TRACK 39 AUDIO
    TITLE "0:"
    INDEX 01 01:08:23
  TRACK 40 AUDIO
    TITLE "3:cjc039_1500"
    INDEX 01 01:09:01
  TRACK 41 AUDIO
    TITLE "0:"
    INDEX 01 01:13:65
  TRACK 42 AUDIO
    TITLE "2:cjc039_1501"
    INDEX 01 01:15:40
  TRACK 43 AUDIO
    TITLE "0:"
    INDEX 01 01:16:38
  TRACK 44 AUDIO
    TITLE "3:cjc039_1502"
    INDEX 01 01:17:18
  TRACK 45 AUDIO
    TITLE "0:"
    INDEX 01 01:20:38
  TRACK 46 AUDIO
    TITLE "2:cjc039_1503"
    INDEX 01 01:22:17
  TRACK 47 AUDIO
    TITLE "0:"
    INDEX 01 01:23:36
  TRACK 48 AUDIO
    TITLE "3:cjc039_1504"
    INDEX 01 01:24:12
  TRACK 49 AUDIO
    TITLE "0:"
    INDEX 01 01:27:46
  TRACK 50 AUDIO
    TITLE "2:cjc039_1505"
    INDEX 01 01:29:27
  TRACK 51 AUDIO
    TITLE "0:"
    INDEX 01 01:30:42
  TRACK 52 AUDIO
    TITLE "3:cjc039_1506"
    INDEX 01 01:31:20
  TRACK 53 AUDIO
    TITLE "0:"
    INDEX 01 01:34:71
  TRACK 54 AUDIO
    TITLE "2:cjc039_1507"
    INDEX 01 01:36:47
  TRACK 55 AUDIO
    TITLE "0:"
    INDEX 01 01:38:14
  TRACK 56 AUDIO
    TITLE "3:cjc039_1508"
    INDEX 01 01:38:61
  TRACK 57 AUDIO
    TITLE "0:"
    INDEX 01 01:42:57
  TRACK 58 AUDIO
    TITLE "2:cjc039_1509"
    INDEX 01 01:44:40
  TRACK 59 AUDIO
    TITLE "0:"
    INDEX 01 01:45:59
  TRACK 60 AUDIO
    TITLE "3:cjc039_1510"
    INDEX 01 01:46:37
  TRACK 61 AUDIO
    TITLE "0:"
    INDEX 01 01:50:06
  TRACK 62 AUDIO
    TITLE "2:cjc039_1511"
    INDEX 01 01:51:56
  TRACK 63 AUDIO
    TITLE "0:"
    INDEX 01 01:53:06
  TRACK 64 AUDIO
    TITLE "3:cjc039_1512"
    INDEX 01 01:53:63
  TRACK 65 AUDIO
    TITLE "0:"
    INDEX 01 01:57:68
  TRACK 66 AUDIO
    TITLE "2:cjc039_1513"
    INDEX 01 01:59:42
  TRACK 67 AUDIO
    TITLE "0:"
    INDEX 01 02:00:41
  TRACK 68 AUDIO
    TITLE "3:cjc039_1514"
    INDEX 01 02:01:13
  TRACK 69 AUDIO
    TITLE "0:"
    INDEX 01 02:04:29
  TRACK 70 AUDIO
    TITLE "2:cjc039_1515"
    INDEX 01 02:06:05
  TRACK 71 AUDIO
    TITLE "0:"
    INDEX 01 02:07:24
  TRACK 72 AUDIO
    TITLE "3:cjc039_1516"
    INDEX 01 02:08:00
  TRACK 73 AUDIO
    TITLE "0:"
    INDEX 01 02:10:67
  TRACK 74 AUDIO
    TITLE "2:cjc039_1517"
    INDEX 01 02:12:40
  TRACK 75 AUDIO
    TITLE "0:"
    INDEX 01 02:13:38
  TRACK 76 AUDIO
    TITLE "3:cjc039_1518"
    INDEX 01 02:14:20
  TRACK 77 AUDIO
    TITLE "0:"
    INDEX 01 02:17:12
  TRACK 78 AUDIO
    TITLE "2:cjc039_1519"
    INDEX 01 02:18:61
  TRACK 79 AUDIO
    TITLE "0:"
    INDEX 01 02:20:05
  TRACK 80 AUDIO
    TITLE "3:cjc039_1520"
    INDEX 01 02:20:48
  TRACK 81 AUDIO
    TITLE "0:"
    INDEX 01 02:24:73
